NotoSansLydian-Regular.ufo
<glyph name="u10920" format="2">
  <advance width="658"/>
  <unicode hex="10920"/>
  <outline>
    <contour>
      <point x="10" y="0" type="line"/>
      <point x="101" y="0" type="line"/>
      <point x="125" y="63" type="line"/>
      <point x="453" y="272" type="line"/>
      <point x="555" y="0" type="line"/>
      <point x="648" y="0" type="line"/>
      <point x="370" y="717" type="line"/>
      <point x="289" y="717" type="line"/>
    </contour>
    <contour>
      <point x="171" y="187" type="line"/>
      <point x="297" y="517" type="line" smooth="yes"/>
      <point x="306" y="541"/>
      <point x="318" y="583"/>
      <point x="328" y="624" type="curve"/>
      <point x="335" y="599"/>
      <point x="356" y="533"/>
      <point x="362" y="517" type="curve" smooth="yes"/>
      <point x="425" y="348" type="line"/>
    </contour>
  </outline>
</glyph>
<glyph name="u10921" format="2">
  <advance width="650"/>
  <unicode hex="10921"/>
  <outline>
    <contour>
      <point x="302" y="0" type="curve" smooth="yes"/>
      <point x="553" y="0" type="line"/>
      <point x="553" y="714" type="line"/>
      <point x="349" y="714" type="line" smooth="yes"/>
      <point x="171" y="714"/>
      <point x="78" y="667"/>
      <point x="78" y="537" type="curve" smooth="yes"/>
      <point x="78" y="453"/>
      <point x="126" y="395"/>
      <point x="214" y="379" type="curve"/>
      <point x="214" y="374" type="line"/>
      <point x="124" y="359"/>
      <point x="54" y="314"/>
      <point x="54" y="203" type="curve" smooth="yes"/>
      <point x="54" y="73"/>
      <point x="149" y="0"/>
    </contour>
    <contour>
      <point x="319" y="77" type="line" smooth="yes"/>
      <point x="193" y="77"/>
      <point x="150" y="130"/>
      <point x="150" y="210" type="curve" smooth="yes"/>
      <point x="150" y="285"/>
      <point x="194" y="334"/>
      <point x="326" y="334" type="curve" smooth="yes"/>
      <point x="463" y="334" type="line"/>
      <point x="463" y="77" type="line"/>
    </contour>
    <contour>
      <point x="331" y="411" type="line" smooth="yes"/>
      <point x="209" y="411"/>
      <point x="171" y="450"/>
      <point x="171" y="527" type="curve" smooth="yes"/>
      <point x="171" y="605"/>
      <point x="224" y="637"/>
      <point x="345" y="637" type="curve" smooth="yes"/>
      <point x="463" y="637" type="line"/>
      <point x="463" y="411" type="line"/>
    </contour>
  </outline>
</glyph>
<glyph name="u10922" format="2">
  <advance width="632"/>
  <unicode hex="10922"/>
  <outline>
    <contour>
      <point x="243" y="-10" type="curve" smooth="yes"/>
      <point x="462" y="-10"/>
      <point x="571" y="133"/>
      <point x="571" y="358" type="curve" smooth="yes"/>
      <point x="571" y="574"/>
      <point x="449" y="724"/>
      <point x="228" y="724" type="curve" smooth="yes"/>
      <point x="155" y="724"/>
      <point x="85" y="709"/>
      <point x="31" y="682" type="curve"/>
      <point x="67" y="606" type="line"/>
      <point x="111" y="626"/>
      <point x="165" y="645"/>
      <point x="229" y="645" type="curve" smooth="yes"/>
      <point x="382" y="645"/>
      <point x="476" y="536"/>
      <point x="476" y="357" type="curve" smooth="yes"/>
      <point x="476" y="180"/>
      <point x="394" y="69"/>
      <point x="230" y="69" type="curve" smooth="yes"/>
      <point x="168" y="69"/>
      <point x="113" y="81"/>
      <point x="59" y="97" type="curve"/>
      <point x="59" y="19" type="line"/>
      <point x="112" y="-1"/>
      <point x="164" y="-10"/>
    </contour>
  </outline>
</glyph>
<glyph name="u10923" format="2">
  <advance width="546"/>
  <unicode hex="10923"/>
  <outline>
    <contour>
      <point x="87" y="-10" type="line"/>
      <point x="359" y="282" type="line"/>
      <point x="359" y="0" type="line"/>
      <point x="449" y="0" type="line"/>
      <point x="449" y="714" type="line"/>
      <point x="359" y="714" type="line"/>
      <point x="359" y="398" type="line"/>
      <point x="29" y="44" type="line"/>
    </contour>
  </outline>
</glyph>
<glyph name="u10924" format="2">
  <advance width="578"/>
  <unicode hex="10924"/>
  <outline>
    <contour>
      <point x="391" y="0" type="line"/>
      <point x="480" y="0" type="line"/>
      <point x="480" y="714" type="line"/>
      <point x="391" y="714" type="line"/>
      <point x="391" y="379" type="line"/>
      <point x="144" y="530" type="line"/>
      <point x="103" y="460" type="line"/>
      <point x="391" y="284" type="line"/>
      <point x="391" y="95" type="line"/>
      <point x="70" y="291" type="line"/>
      <point x="29" y="221" type="line"/>
    </contour>
  </outline>
</glyph>
<glyph name="u10925" format="2">
  <advance width="578"/>
  <unicode hex="10925"/>
  <outline>
    <contour>
      <point x="391" y="0" type="line"/>
      <point x="480" y="0" type="line"/>
      <point x="480" y="714" type="line"/>
      <point x="391" y="714" type="line"/>
      <point x="29" y="493" type="line"/>
      <point x="70" y="423" type="line"/>
      <point x="391" y="619" type="line"/>
      <point x="391" y="430" type="line"/>
      <point x="103" y="254" type="line"/>
      <point x="144" y="184" type="line"/>
      <point x="391" y="335" type="line"/>
    </contour>
  </outline>
</glyph>
<glyph name="u10926" format="2">
  <advance width="334"/>
  <unicode hex="10926"/>
  <outline>
    <contour>
      <point x="122" y="0" type="line"/>
      <point x="212" y="0" type="line"/>
      <point x="212" y="714" type="line"/>
      <point x="122" y="714" type="line"/>
    </contour>
  </outline>
</glyph>
<glyph name="u10927" format="2">
  <advance width="633"/>
  <unicode hex="10927"/>
  <outline>
    <contour>
      <point x="434" y="0" type="curve" smooth="yes"/>
      <point x="535" y="0" type="line"/>
      <point x="535" y="714" type="line"/>
      <point x="413" y="714" type="line" smooth="yes"/>
      <point x="198" y="714"/>
      <point x="61" y="593"/>
      <point x="61" y="364" type="curve" smooth="yes"/>
      <point x="61" y="123"/>
      <point x="199" y="0"/>
    </contour>
    <contour>
      <point x="441" y="77" type="line" smooth="yes"/>
      <point x="248" y="77"/>
      <point x="156" y="173"/>
      <point x="156" y="361" type="curve" smooth="yes"/>
      <point x="156" y="551"/>
      <point x="254" y="637"/>
      <point x="426" y="637" type="curve" smooth="yes"/>
      <point x="445" y="637" type="line"/>
      <point x="445" y="77" type="line"/>
    </contour>
  </outline>
</glyph>
<glyph name="u10928" format="2">
  <advance width="520"/>
  <unicode hex="10928"/>
  <outline>
    <contour>
      <point x="333" y="0" type="line"/>
      <point x="422" y="0" type="line"/>
      <point x="422" y="714" type="line"/>
      <point x="333" y="714" type="line"/>
      <point x="333" y="441" type="line"/>
      <point x="78" y="651" type="line"/>
      <point x="29" y="586" type="line"/>
      <point x="298" y="366" type="line"/>
      <point x="29" y="146" type="line"/>
      <point x="78" y="81" type="line"/>
      <point x="333" y="290" type="line"/>
    </contour>
  </outline>
</glyph>
<glyph name="u10929" format="2">
  <advance width="578"/>
  <unicode hex="10929"/>
  <outline>
    <contour>
      <point x="391" y="0" type="line"/>
      <point x="480" y="0" type="line"/>
      <point x="480" y="714" type="line"/>
      <point x="391" y="714" type="line"/>
      <point x="29" y="493" type="line"/>
      <point x="70" y="423" type="line"/>
      <point x="391" y="619" type="line"/>
    </contour>
  </outline>
</glyph>
<glyph name="u1092A" format="2">
  <advance width="750"/>
  <unicode hex="1092A"/>
  <outline>
    <contour>
      <point x="563" y="0" type="line"/>
      <point x="652" y="0" type="line"/>
      <point x="652" y="714" type="line"/>
      <point x="563" y="714" type="line"/>
      <point x="395" y="498" type="line"/>
      <point x="263" y="669" type="line"/>
      <point x="199" y="669" type="line"/>
      <point x="29" y="452" type="line"/>
      <point x="91" y="400" type="line"/>
      <point x="229" y="577" type="line"/>
      <point x="354" y="419" type="line"/>
      <point x="436" y="419" type="line"/>
      <point x="563" y="582" type="line"/>
    </contour>
  </outline>
</glyph>
<glyph name="u1092B" format="2">
  <advance width="678"/>
  <unicode hex="1092B"/>
  <outline>
    <contour>
      <point x="491" y="0" type="line"/>
      <point x="581" y="0" type="line"/>
      <point x="581" y="714" type="line"/>
      <point x="491" y="714" type="line"/>
      <point x="281" y="496" type="line"/>
      <point x="92" y="724" type="line"/>
      <point x="29" y="669" type="line"/>
      <point x="246" y="413" type="line"/>
      <point x="247" y="414" type="line"/>
      <point x="248" y="413" type="line"/>
      <point x="311" y="413" type="line"/>
      <point x="491" y="600" type="line"/>
    </contour>
  </outline>
</glyph>
<glyph name="u1092C" format="2">
  <advance width="707"/>
  <unicode hex="1092C"/>
  <outline>
    <contour>
      <point x="353" y="95" type="curve" smooth="yes"/>
      <point x="541" y="95"/>
      <point x="646" y="204"/>
      <point x="646" y="366" type="curve" smooth="yes"/>
      <point x="646" y="530"/>
      <point x="540" y="637"/>
      <point x="354" y="637" type="curve" smooth="yes"/>
      <point x="160" y="637"/>
      <point x="61" y="520"/>
      <point x="61" y="367" type="curve" smooth="yes"/>
      <point x="61" y="214"/>
      <point x="159" y="95"/>
    </contour>
    <contour>
      <point x="353" y="174" type="curve" smooth="yes"/>
      <point x="212" y="174"/>
      <point x="156" y="254"/>
      <point x="156" y="366" type="curve" smooth="yes"/>
      <point x="156" y="480"/>
      <point x="213" y="558"/>
      <point x="354" y="558" type="curve" smooth="yes"/>
      <point x="494" y="558"/>
      <point x="551" y="480"/>
      <point x="551" y="366" type="curve" smooth="yes"/>
      <point x="551" y="253"/>
      <point x="493" y="174"/>
    </contour>
  </outline>
</glyph>
<glyph name="u1092D" format="2">
  <advance width="617"/>
  <unicode hex="1092D"/>
  <outline>
    <contour>
      <point x="430" y="0" type="line"/>
      <point x="520" y="0" type="line"/>
      <point x="520" y="714" type="line"/>
      <point x="331" y="714" type="line" smooth="yes"/>
      <point x="144" y="714"/>
      <point x="61" y="632"/>
      <point x="61" y="499" type="curve" smooth="yes"/>
      <point x="61" y="381"/>
      <point x="134" y="278"/>
      <point x="348" y="278" type="curve" smooth="yes"/>
      <point x="430" y="278" type="line"/>
    </contour>
    <contour>
      <point x="358" y="355" type="line" smooth="yes"/>
      <point x="222" y="355"/>
      <point x="156" y="395"/>
      <point x="156" y="500" type="curve" smooth="yes"/>
      <point x="156" y="592"/>
      <point x="213" y="637"/>
      <point x="339" y="637" type="curve" smooth="yes"/>
      <point x="430" y="637" type="line"/>
      <point x="430" y="355" type="line"/>
    </contour>
  </outline>
</glyph>
<glyph name="u1092E" format="2">
  <advance width="569"/>
  <unicode hex="1092E"/>
  <outline>
    <contour>
      <point x="465" y="-20" type="curve"/>
      <point x="521" y="46" type="line"/>
      <point x="459" y="95"/>
      <point x="433" y="127"/>
      <point x="433" y="164" type="curve" smooth="yes"/>
      <point x="433" y="202"/>
      <point x="452" y="247"/>
      <point x="452" y="296" type="curve" smooth="yes"/>
      <point x="452" y="342"/>
      <point x="435" y="379"/>
      <point x="394" y="396" type="curve"/>
      <point x="440" y="438"/>
      <point x="463" y="488"/>
      <point x="463" y="547" type="curve" smooth="yes"/>
      <point x="463" y="649"/>
      <point x="396" y="724"/>
      <point x="238" y="724" type="curve" smooth="yes"/>
      <point x="142" y="724"/>
      <point x="66" y="690"/>
      <point x="15" y="650" type="curve"/>
      <point x="57" y="583" type="line"/>
      <point x="110" y="618"/>
      <point x="162" y="645"/>
      <point x="239" y="645" type="curve" smooth="yes"/>
      <point x="319" y="645"/>
      <point x="369" y="605"/>
      <point x="369" y="536" type="curve" smooth="yes"/>
      <point x="369" y="470"/>
      <point x="328" y="417"/>
      <point x="250" y="397" type="curve"/>
      <point x="263" y="321" type="line"/>
      <point x="280" y="325"/>
      <point x="296" y="329"/>
      <point x="311" y="329" type="curve" smooth="yes"/>
      <point x="337" y="329"/>
      <point x="357" y="317"/>
      <point x="357" y="278" type="curve" smooth="yes"/>
      <point x="357" y="231"/>
      <point x="338" y="207"/>
      <point x="338" y="157" type="curve" smooth="yes"/>
      <point x="338" y="96"/>
      <point x="376" y="46"/>
    </contour>
  </outline>
</glyph>
<glyph name="u1092F" format="2">
  <advance width="564"/>
  <unicode hex="1092F"/>
  <outline>
    <contour>
      <point x="238" y="0" type="line"/>
      <point x="328" y="0" type="line"/>
      <point x="328" y="637" type="line"/>
      <point x="550" y="637" type="line"/>
      <point x="550" y="714" type="line"/>
      <point x="15" y="714" type="line"/>
      <point x="15" y="637" type="line"/>
      <point x="238" y="637" type="line"/>
    </contour>
  </outline>
</glyph>
<glyph name="u10930" format="2">
  <advance width="546"/>
  <unicode hex="10930"/>
  <outline>
    <contour>
      <point x="359" y="0" type="line"/>
      <point x="449" y="0" type="line"/>
      <point x="449" y="714" type="line"/>
      <point x="359" y="714" type="line"/>
      <point x="359" y="431" type="line"/>
      <point x="87" y="724" type="line"/>
      <point x="29" y="668" type="line"/>
      <point x="359" y="313" type="line"/>
    </contour>
  </outline>
</glyph>
<glyph name="u10931" format="2">
  <advance width="583"/>
  <unicode hex="10931"/>
  <outline>
    <contour>
      <point x="294" y="-10" type="curve" smooth="yes"/>
      <point x="436" y="-10"/>
      <point x="534" y="65"/>
      <point x="534" y="185" type="curve" smooth="yes"/>
      <point x="534" y="282"/>
      <point x="462" y="335"/>
      <point x="374" y="378" type="curve"/>
      <point x="448" y="416"/>
      <point x="510" y="467"/>
      <point x="510" y="553" type="curve" smooth="yes"/>
      <point x="510" y="664"/>
      <point x="416" y="724"/>
      <point x="291" y="724" type="curve" smooth="yes"/>
      <point x="169" y="724"/>
      <point x="72" y="663"/>
      <point x="72" y="554" type="curve" smooth="yes"/>
      <point x="72" y="466"/>
      <point x="128" y="413"/>
      <point x="198" y="373" type="curve"/>
      <point x="119" y="337"/>
      <point x="49" y="279"/>
      <point x="49" y="182" type="curve" smooth="yes"/>
      <point x="49" y="61"/>
      <point x="140" y="-10"/>
    </contour>
    <contour>
      <point x="292" y="69" type="curve" smooth="yes"/>
      <point x="189" y="69"/>
      <point x="142" y="112"/>
      <point x="142" y="181" type="curve" smooth="yes"/>
      <point x="142" y="254"/>
      <point x="188" y="296"/>
      <point x="276" y="334" type="curve"/>
      <point x="299" y="326" type="line" smooth="yes"/>
      <point x="309" y="322"/>
      <point x="352" y="306"/>
      <point x="384" y="282" type="curve" smooth="yes"/>
      <point x="419" y="255"/>
      <point x="441" y="229"/>
      <point x="441" y="184" type="curve" smooth="yes"/>
      <point x="441" y="111"/>
      <point x="389" y="69"/>
    </contour>
    <contour>
      <point x="295" y="414" type="curve"/>
      <point x="222" y="444"/>
      <point x="165" y="479"/>
      <point x="165" y="547" type="curve" smooth="yes"/>
      <point x="165" y="613"/>
      <point x="216" y="645"/>
      <point x="290" y="645" type="curve" smooth="yes"/>
      <point x="367" y="645"/>
      <point x="417" y="613"/>
      <point x="417" y="547" type="curve" smooth="yes"/>
      <point x="417" y="483"/>
      <point x="364" y="442"/>
    </contour>
  </outline>
</glyph>
<glyph name="u10932" format="2">
  <advance width="612"/>
  <unicode hex="10932"/>
  <outline>
    <contour>
      <point x="261" y="0" type="line"/>
      <point x="351" y="0" type="line"/>
      <point x="351" y="325" type="line"/>
      <point x="573" y="325" type="line"/>
      <point x="573" y="401" type="line"/>
      <point x="351" y="401" type="line"/>
      <point x="351" y="714" type="line"/>
      <point x="261" y="714" type="line"/>
      <point x="261" y="401" type="line"/>
      <point x="39" y="401" type="line"/>
      <point x="39" y="325" type="line"/>
      <point x="261" y="325" type="line"/>
    </contour>
  </outline>
</glyph>
<glyph name="u10933" format="2">
  <advance width="612"/>
  <unicode hex="10933"/>
  <outline>
    <contour>
      <point x="261" y="0" type="line"/>
      <point x="351" y="0" type="line"/>
      <point x="351" y="325" type="line"/>
      <point x="573" y="325" type="line"/>
      <point x="573" y="401" type="line"/>
      <point x="351" y="401" type="line"/>
      <point x="351" y="637" type="line"/>
      <point x="573" y="637" type="line"/>
      <point x="573" y="714" type="line"/>
      <point x="39" y="714" type="line"/>
      <point x="39" y="637" type="line"/>
      <point x="261" y="637" type="line"/>
      <point x="261" y="401" type="line"/>
      <point x="39" y="401" type="line"/>
      <point x="39" y="325" type="line"/>
      <point x="261" y="325" type="line"/>
    </contour>
  </outline>
</glyph>
<glyph name="u10934" format="2">
  <advance width="612"/>
  <unicode hex="10934"/>
  <outline>
    <contour>
      <point x="39" y="0" type="line"/>
      <point x="573" y="0" type="line"/>
      <point x="573" y="77" type="line"/>
      <point x="351" y="77" type="line"/>
      <point x="351" y="325" type="line"/>
      <point x="573" y="325" type="line"/>
      <point x="573" y="401" type="line"/>
      <point x="351" y="401" type="line"/>
      <point x="351" y="637" type="line"/>
      <point x="573" y="637" type="line"/>
      <point x="573" y="714" type="line"/>
      <point x="39" y="714" type="line"/>
      <point x="39" y="637" type="line"/>
      <point x="261" y="637" type="line"/>
      <point x="261" y="401" type="line"/>
      <point x="39" y="401" type="line"/>
      <point x="39" y="325" type="line"/>
      <point x="261" y="325" type="line"/>
      <point x="261" y="77" type="line"/>
      <point x="39" y="77" type="line"/>
    </contour>
  </outline>
</glyph>
<glyph name="u10936" format="2">
  <advance width="673"/>
  <unicode hex="10936"/>
  <outline>
    <contour>
      <point x="292" y="0" type="line"/>
      <point x="381" y="0" type="line"/>
      <point x="381" y="272" type="line"/>
      <point x="654" y="714" type="line"/>
      <point x="562" y="714" type="line"/>
      <point x="449" y="525" type="line" smooth="yes"/>
      <point x="425" y="485"/>
      <point x="403" y="446"/>
      <point x="381" y="406" type="curve"/>
      <point x="381" y="714" type="line"/>
      <point x="292" y="714" type="line"/>
      <point x="292" y="408" type="line"/>
      <point x="272" y="443"/>
      <point x="252" y="479"/>
      <point x="231" y="514" type="curve" smooth="yes"/>
      <point x="111" y="714" type="line"/>
      <point x="20" y="714" type="line"/>
      <point x="292" y="272" type="line"/>
    </contour>
  </outline>
</glyph>
<glyph name="u10937" format="2">
  <advance width="829"/>
  <unicode hex="10937"/>
  <outline>
    <contour>
      <point x="370" y="0" type="line"/>
      <point x="459" y="0" type="line"/>
      <point x="459" y="586" type="line"/>
      <point x="560" y="459" type="line"/>
      <point x="627" y="459" type="line"/>
      <point x="800" y="675" type="line"/>
      <point x="738" y="724" type="line"/>
      <point x="594" y="545" type="line"/>
      <point x="459" y="714" type="line"/>
      <point x="370" y="714" type="line"/>
      <point x="235" y="545" type="line"/>
      <point x="91" y="724" type="line"/>
      <point x="29" y="675" type="line"/>
      <point x="202" y="459" type="line"/>
      <point x="269" y="459" type="line"/>
      <point x="370" y="586" type="line"/>
    </contour>
  </outline>
</glyph>
<glyph name="u10938" format="2">
  <advance width="653"/>
  <unicode hex="10938"/>
  <outline>
    <contour>
      <point x="534" y="-10" type="curve"/>
      <point x="570" y="61" type="line"/>
      <point x="486" y="85"/>
      <point x="401" y="137"/>
      <point x="401" y="201" type="curve" smooth="yes"/>
      <point x="401" y="326"/>
      <point x="589" y="332"/>
      <point x="589" y="520" type="curve" smooth="yes"/>
      <point x="589" y="590"/>
      <point x="526" y="671"/>
      <point x="361" y="724" type="curve"/>
      <point x="326" y="653" type="line"/>
      <point x="418" y="624"/>
      <point x="495" y="572"/>
      <point x="495" y="516" type="curve" smooth="yes"/>
      <point x="495" y="432"/>
      <point x="445" y="396"/>
      <point x="395" y="357" type="curve"/>
      <point x="352" y="387"/>
      <point x="291" y="407"/>
      <point x="232" y="407" type="curve" smooth="yes"/>
      <point x="149" y="407"/>
      <point x="80" y="363"/>
      <point x="39" y="318" type="curve"/>
      <point x="86" y="261" type="line"/>
      <point x="120" y="299"/>
      <point x="167" y="328"/>
      <point x="233" y="328" type="curve" smooth="yes"/>
      <point x="278" y="328"/>
      <point x="312" y="316"/>
      <point x="337" y="300" type="curve"/>
      <point x="318" y="274"/>
      <point x="306" y="242"/>
      <point x="306" y="197" type="curve" smooth="yes"/>
      <point x="306" y="112"/>
      <point x="385" y="30"/>
    </contour>
  </outline>
</glyph>
<glyph name="u10939" format="2">
  <advance width="684"/>
  <unicode hex="10939"/>
  <outline>
    <contour>
      <point x="297" y="0" type="line"/>
      <point x="387" y="0" type="line"/>
      <point x="387" y="590" type="line"/>
      <point x="607" y="365" type="line"/>
      <point x="665" y="421" type="line"/>
      <point x="377" y="714" type="line"/>
      <point x="307" y="714" type="line"/>
      <point x="20" y="421" type="line"/>
      <point x="77" y="365" type="line"/>
      <point x="297" y="591" type="line"/>
    </contour>
  </outline>
</glyph>
<glyph name="u1093F" format="2">
  <advance width="486"/>
  <unicode hex="1093F"/>
  <outline>
    <contour>
      <point x="333" y="124" type="line"/>
      <point x="422" y="124" type="line"/>
      <point x="422" y="580" type="line"/>
      <point x="333" y="580" type="line"/>
      <point x="49" y="403" type="line"/>
      <point x="49" y="301" type="line"/>
    </contour>
    <contour>
      <point x="333" y="216" type="line"/>
      <point x="117" y="352" type="line"/>
      <point x="333" y="488" type="line"/>
    </contour>
  </outline>
</glyph>
<glyph name=".notdef" format="2">
  <advance width="500"/>
  <outline>
    <contour>
      <point x="50" y="0" type="line"/>
      <point x="450" y="0" type="line"/>
      <point x="450" y="714" type="line"/>
      <point x="50" y="714" type="line"/>
    </contour>
    <contour>
      <point x="98" y="48" type="line"/>
      <point x="98" y="666" type="line"/>
      <point x="402" y="666" type="line"/>
      <point x="402" y="48" type="line"/>
    </contour>
  </outline>
</glyph>
